<svg width="24" height="24" viewBox="0 0 24 24" fill="none" xmlns="http://www.w3.org/2000/svg">
<path d="M17.9999 5.99994C17.8124 5.81247 17.5581 5.70715 17.2929 5.70715C17.0278 5.70715 16.7735 5.81247 16.5859 5.99994L11.9999 10.5859L7.41394 5.99994C7.22641 5.81247 6.9721 5.70715 6.70694 5.70715C6.44178 5.70715 6.18747 5.81247 5.99994 5.99994C5.81247 6.18747 5.70715 6.44178 5.70715 6.70694C5.70715 6.9721 5.81247 7.22641 5.99994 7.41394L10.5859 11.9999L5.99994 16.5859C5.81247 16.7735 5.70715 17.0278 5.70715 17.2929C5.70715 17.5581 5.81247 17.8124 5.99994 17.9999C6.18747 18.1874 6.44178 18.2927 6.70694 18.2927C6.9721 18.2927 7.22641 18.1874 7.41394 17.9999L11.9999 13.4139L16.5859 17.9999C16.7735 18.1874 17.0278 18.2927 17.2929 18.2927C17.5581 18.2927 17.8124 18.1874 17.9999 17.9999C18.1874 17.8124 18.2927 17.5581 18.2927 17.2929C18.2927 17.0278 18.1874 16.7735 17.9999 16.5859L13.4139 11.9999L17.9999 7.41394C18.1874 7.22641 18.2927 6.9721 18.2927 6.70694C18.2927 6.44178 18.1874 6.18747 17.9999 5.99994V5.99994Z" fill="white"/>
</svg>
