<svg width="24" height="24" viewBox="0 0 24 24" fill="none" xmlns="http://www.w3.org/2000/svg">
<g clip-path="url(#clip0_640_44)">
<path fill-rule="evenodd" clip-rule="evenodd" d="M5 2.99997C5 2.99997 9.96094 2.99935 14 2.99928V4.99997H5C4.20435 4.99997 3.44129 5.31604 2.87868 5.87865C2.31607 6.44126 2 7.20432 2 7.99997V14C2 14.7956 2.31607 15.5587 2.87868 16.1213C3.44129 16.6839 4.20435 17 5 17H19C19.7956 17 20.5587 16.6839 21.1213 16.1213C21.6839 15.5587 22 14.7956 22 14V12V7.99997H24V12V14C23.9984 15.3256 23.4711 16.5964 22.5338 17.5338C21.5964 18.4711 20.3256 18.9984 19 19H13V20H16C16.2652 20 16.5196 20.1053 16.7071 20.2929C16.8946 20.4804 17 20.7348 17 21C17 21.2652 16.8946 21.5195 16.7071 21.7071C16.5196 21.8946 16.2652 22 16 22H8C7.73478 22 7.48043 21.8946 7.29289 21.7071C7.10536 21.5195 7 21.2652 7 21C7 20.7348 7.10536 20.4804 7.29289 20.2929C7.48043 20.1053 7.73478 20 8 20H11V19H5C3.6744 18.9984 2.40356 18.4711 1.46622 17.5338C0.528882 16.5964 0.00158786 15.3256 0 14L0 7.99997C0.00158786 6.67438 0.528882 5.40353 1.46622 4.46619C2.40356 3.52886 3.6744 3.00156 5 2.99997Z" fill="white"/>
<path d="M20.8072 8.1393C20.7452 8.07682 20.6715 8.02722 20.5902 7.99338C20.509 7.95953 20.4219 7.94211 20.3339 7.94211C20.2459 7.94211 20.1587 7.95953 20.0775 7.99338C19.9962 8.02722 19.9225 8.07682 19.8605 8.1393L17.6672 10.3326V3.66597C17.6672 3.48916 17.597 3.31959 17.4719 3.19457C17.3469 3.06954 17.1773 2.9993 17.0005 2.9993C16.8237 2.9993 16.6541 3.06954 16.5291 3.19457C16.4041 3.31959 16.3339 3.48916 16.3339 3.66597V10.3326L14.1405 8.1393C14.0786 8.07682 14.0048 8.02722 13.9236 7.99338C13.8423 7.95953 13.7552 7.94211 13.6672 7.94211C13.5792 7.94211 13.492 7.95953 13.4108 7.99338C13.3296 8.02722 13.2558 8.07682 13.1939 8.1393C13.0697 8.26421 13 8.43318 13 8.6093C13 8.78543 13.0697 8.9544 13.1939 9.0793L16.0605 11.9393C16.3094 12.1897 16.6475 12.3311 17.0005 12.3326C17.3513 12.3294 17.6866 12.1881 17.9339 11.9393L20.8005 9.0793C20.9256 8.95528 20.9965 8.7868 20.9977 8.61068C20.999 8.43455 20.9305 8.26509 20.8072 8.1393Z" fill="white"/>
</g>
<defs>
<clipPath id="clip0_640_44">
<rect width="24" height="24" fill="white"/>
</clipPath>
</defs>
</svg>
