<svg width="100" height="100" viewBox="0 0 100 100" fill="none" xmlns="http://www.w3.org/2000/svg">
<path d="M14 50.5C14 45.7068 14.9441 40.9604 16.7784 36.5321C18.6127 32.1037 21.3013 28.0799 24.6906 24.6906C28.0799 21.3013 32.1037 18.6127 36.5321 16.7784C40.9604 14.9441 45.7068 14 50.5 14C55.2933 14 60.0396 14.9441 64.4679 16.7784C68.8963 18.6127 72.9201 21.3013 76.3094 24.6906C79.6987 28.0799 82.3873 32.1037 84.2216 36.5321C86.0559 40.9604 87 45.7068 87 50.5L83.35 50.5C83.35 46.1861 82.5003 41.9144 80.8494 37.9289C79.1986 33.9433 76.7789 30.3219 73.7285 27.2715C70.6781 24.2211 67.0567 21.8014 63.0712 20.1506C59.0856 18.4997 54.8139 17.65 50.5 17.65C46.1861 17.65 41.9144 18.4997 37.9289 20.1506C33.9433 21.8014 30.3219 24.2211 27.2715 27.2715C24.2211 30.3219 21.8014 33.9433 20.1506 37.9288C18.4997 41.9144 17.65 46.1861 17.65 50.5H14Z" fill="#FA2F5B"/>
</svg>
