<svg width="24" height="24" viewBox="0 0 24 24" fill="none" xmlns="http://www.w3.org/2000/svg">
<g clip-path="url(#clip0_641_46)">
<path d="M20.8588 15.3311L17.0868 21.4861C16.6726 22.1661 16.1087 22.7426 15.4381 23.1719C14.7675 23.6011 14.0078 23.8717 13.2168 23.9631C13.0084 23.9878 12.7987 24.0002 12.5888 24.0001C11.5143 23.9986 10.4665 23.6651 9.58881 23.0451C8.68187 23.7245 7.56155 24.0567 6.43082 23.9813C5.3001 23.9059 4.23378 23.428 3.42506 22.6341C2.61634 21.8403 2.11873 20.783 2.02237 19.6539C1.92602 18.5248 2.2373 17.3985 2.89982 16.4791L1.58482 15.1661C1.02331 14.6045 0.596131 13.9232 0.335267 13.1732C0.0744026 12.4232 -0.0133848 11.6238 0.0784792 10.835C0.170343 10.0463 0.439478 9.28848 0.865727 8.61847C1.29198 7.94845 1.86429 7.38355 2.53982 6.96608L8.30682 3.40008C9.86903 2.39886 11.7062 1.91343 13.5591 2.0123C15.4119 2.11116 17.187 2.78931 18.6338 3.95108L20.2928 2.29208C20.3851 2.19657 20.4954 2.12039 20.6174 2.06798C20.7394 2.01557 20.8706 1.98799 21.0034 1.98683C21.1362 1.98568 21.2679 2.01098 21.3908 2.06126C21.5137 2.11154 21.6253 2.18579 21.7192 2.27969C21.8131 2.37358 21.8874 2.48523 21.9376 2.60813C21.9879 2.73102 22.0132 2.8627 22.0121 2.99548C22.0109 3.12826 21.9833 3.25948 21.9309 3.38149C21.8785 3.50349 21.8023 3.61384 21.7068 3.70608L20.0498 5.36408C21.1612 6.75632 21.8318 8.44851 21.9759 10.2241C22.12 11.9996 21.7311 13.7778 20.8588 15.3311V15.3311ZM8.06481 21.6471L4.34582 17.9271C4.05519 18.4468 3.9431 19.0476 4.02673 19.6372C4.11037 20.2268 4.38511 20.7726 4.80882 21.1911C5.23624 21.5971 5.77989 21.8593 6.36371 21.9411C6.94753 22.0228 7.5423 21.9201 8.06481 21.6471V21.6471ZM17.9858 6.04708C16.8754 4.92592 15.4136 4.22011 13.845 4.04772C12.2764 3.87534 10.6963 4.24684 9.36882 5.10008L3.59182 8.66608C3.17286 8.92505 2.81791 9.27544 2.55357 9.69103C2.28923 10.1066 2.12234 10.5766 2.06539 11.0659C2.00844 11.5551 2.06292 12.0509 2.22474 12.5161C2.38657 12.9813 2.65154 13.4038 2.99982 13.7521L10.2898 21.0431C10.6387 21.3923 11.0621 21.6579 11.5284 21.8199C11.9947 21.9819 12.4916 22.036 12.9818 21.9783C13.472 21.9205 13.9428 21.7524 14.3587 21.4865C14.7745 21.2206 15.1247 20.8638 15.3828 20.4431L19.1378 14.3181C19.8712 13.0008 20.1555 11.4805 19.9477 9.98718C19.7398 8.49389 19.0511 7.10898 17.9858 6.04208V6.04708ZM19.2648 24.0001C19.0536 24.0005 18.8477 23.934 18.6767 23.8102C18.5056 23.6863 18.3781 23.5115 18.3125 23.3108C18.2469 23.1101 18.2465 22.8937 18.3114 22.6927C18.3763 22.4918 18.5032 22.3165 18.6738 22.1921C20.4248 20.8756 21.6099 18.9427 21.9888 16.7851C22.0154 16.6552 22.0675 16.5319 22.1422 16.4223C22.2168 16.3128 22.3126 16.2192 22.4237 16.1469C22.5349 16.0747 22.6593 16.0253 22.7898 16.0016C22.9202 15.9779 23.0541 15.9804 23.1835 16.0089C23.313 16.0374 23.4355 16.0914 23.544 16.1677C23.6524 16.244 23.7446 16.341 23.8151 16.4533C23.8857 16.5655 23.9332 16.6907 23.955 16.8215C23.9767 16.9522 23.9723 17.086 23.9418 17.2151C23.4518 19.8467 21.9932 22.1991 19.8538 23.8081C19.6828 23.9328 19.4765 24 19.2648 24.0001ZM0.999815 5.73908C0.815118 5.73826 0.634257 5.6863 0.477286 5.58897C0.320315 5.49163 0.193368 5.35273 0.11052 5.18765C0.0276712 5.02258 -0.00784092 4.83778 0.00792078 4.65375C0.0236825 4.46973 0.0901021 4.29366 0.199815 4.14508C1.8308 1.96567 4.23163 0.490404 6.91282 0.0200819C7.17273 -0.0329614 7.44307 0.0194175 7.66436 0.165696C7.88565 0.311974 8.03977 0.54017 8.09282 0.800082C8.14586 1.05999 8.09348 1.33033 7.9472 1.55163C7.80092 1.77292 7.57273 1.92704 7.31282 1.98008C5.11079 2.3437 3.13505 3.54571 1.79982 5.33408C1.70719 5.4592 1.58664 5.56096 1.44775 5.63127C1.30887 5.70159 1.15548 5.7385 0.999815 5.73908V5.73908Z" fill="white"/>
</g>
<defs>
<clipPath id="clip0_641_46">
<rect width="24" height="24" fill="white"/>
</clipPath>
</defs>
</svg>
