<svg width="24" height="24" viewBox="0 0 24 24" fill="none" xmlns="http://www.w3.org/2000/svg">
<g clip-path="url(#clip0_643_50)">
<path fill-rule="evenodd" clip-rule="evenodd" d="M17.0869 21.486L17.4907 20.8271L16.0979 19.2767L15.3829 20.443C15.1248 20.8637 14.7746 21.2205 14.3587 21.4864C13.9429 21.7523 13.4721 21.9204 12.9819 21.9782C12.4917 22.0359 11.9948 21.9818 11.5285 21.8198C11.0622 21.6578 10.6387 21.3922 10.2899 21.043L2.99989 13.752C2.65161 13.4037 2.38664 12.9812 2.22482 12.516C2.063 12.0508 2.00852 11.555 2.06546 11.0658C2.12241 10.5765 2.2893 10.1065 2.55365 9.69093C2.81799 9.27535 3.17293 8.92495 3.59189 8.66598L5.5 7.5L4.0342 6.04198L2.53989 6.96598C1.86437 7.38345 1.29205 7.94835 0.865802 8.61837C0.439553 9.28838 0.170418 10.0462 0.0785543 10.8349C-0.0133097 11.6237 0.0744776 12.4231 0.335342 13.1731C0.596206 13.9231 1.02339 14.6044 1.58489 15.166L2.89989 16.479C2.23737 17.3984 1.92609 18.5247 2.02245 19.6538C2.1188 20.7829 2.61642 21.8402 3.42514 22.634C4.23386 23.4279 5.30018 23.9058 6.4309 23.9812C7.56162 24.0566 8.68195 23.7244 9.58889 23.045C10.4665 23.665 11.5144 23.9985 12.5889 24C12.7988 24.0001 13.0085 23.9877 13.2169 23.963C14.0079 23.8716 14.7676 23.601 15.4382 23.1718C16.1088 22.7425 16.6727 22.166 17.0869 21.486ZM17.8399 16.4351L19.2932 17.8859L20.8589 15.331C21.7312 13.7777 22.1201 11.9995 21.976 10.224C21.8319 8.44841 21.1612 6.75622 20.0499 5.36398L21.7069 3.70598C21.8024 3.61374 21.8786 3.50339 21.931 3.38139C21.9834 3.25938 22.011 3.12816 22.0121 2.99538C22.0133 2.8626 21.988 2.73092 21.9377 2.60803C21.8874 2.48513 21.8132 2.37348 21.7193 2.27959C21.6254 2.18569 21.5137 2.11144 21.3908 2.06116C21.2679 2.01088 21.1363 1.98558 21.0035 1.98673C20.8707 1.98789 20.7395 2.01547 20.6175 2.06788C20.4955 2.12029 20.3851 2.19647 20.2929 2.29198L18.6339 3.95098C17.1871 2.78921 15.412 2.11106 13.5591 2.0122C11.7063 1.91333 9.8691 2.39876 8.30689 3.39998L6.5 4.5L8 6L9.36889 5.09998C10.6963 4.24674 12.2765 3.87524 13.8451 4.04762C15.4136 4.22001 16.8754 4.92582 17.9859 6.04698V6.04198C19.0512 7.10888 19.7399 8.49379 19.9477 9.98708C20.1556 11.4804 19.8713 13.0007 19.1379 14.318L17.8399 16.4351ZM4.34589 17.927L8.06489 21.647C7.54238 21.92 6.9476 22.0227 6.36378 21.941C5.77996 21.8592 5.23631 21.597 4.80889 21.191C4.38518 20.7726 4.11044 20.2267 4.02681 19.6371C3.94318 19.0475 4.05527 18.4467 4.34589 17.927Z" fill="white"/>
<line x1="22.2615" y1="23.6743" x2="1.26151" y2="0.674267" stroke="white" stroke-width="2"/>
</g>
<defs>
<clipPath id="clip0_643_50">
<rect width="24" height="24" fill="white"/>
</clipPath>
</defs>
</svg>
