<svg width="512" height="512" viewBox="0 0 512 512" fill="none" xmlns="http://www.w3.org/2000/svg">
<path d="M512 256C512 114.615 397.385 0 256 0C114.615 0 0 114.615 0 256C0 397.385 114.615 512 256 512C397.385 512 512 397.385 512 256Z" fill="url(#paint0_linear_13_23)"/>
<path d="M416 309.332V375.999C416 386.607 411.786 396.781 404.284 404.283C396.783 411.784 386.608 415.999 376 415.999H309.333C290.628 415.98 272.256 411.041 256.063 401.68C239.868 392.32 226.419 378.864 217.067 362.666C227.118 362.593 237.136 361.485 246.96 359.359C254.442 368.714 263.933 376.266 274.731 381.455C285.528 386.643 297.355 389.334 309.333 389.332H376C379.536 389.332 382.928 387.926 385.428 385.427C387.928 382.927 389.333 379.535 389.333 375.999V309.332C389.331 297.348 386.629 285.519 381.432 274.721C376.234 263.924 368.672 254.435 359.307 246.959C361.451 237.136 362.577 227.119 362.667 217.065C378.865 226.418 392.321 239.867 401.683 256.06C411.043 272.255 415.981 290.627 416 309.332ZM335.693 224.678C336.94 207.5 334.475 190.255 328.464 174.115C322.454 157.974 313.04 143.316 300.861 131.137C288.683 118.959 274.024 109.544 257.884 103.534C241.744 97.5239 224.498 95.0579 207.32 96.3053C176.879 99.7818 148.759 114.268 128.256 137.035C107.752 159.803 96.2803 189.281 96 219.919V287.119C96 320.879 116.093 335.999 136 335.999H212C242.651 335.734 272.147 324.271 294.931 303.765C317.715 283.261 332.212 255.132 335.693 224.678ZM282 150.012C291.466 159.498 298.784 170.908 303.457 183.468C308.132 196.028 310.053 209.445 309.093 222.812C306.248 246.595 294.806 268.516 276.924 284.451C259.043 300.385 235.952 309.235 212 309.332H136C123.627 309.332 122.667 292.332 122.667 287.119V219.919C122.778 195.977 131.635 172.901 147.572 155.034C163.509 137.167 185.427 125.741 209.2 122.905C211.413 122.745 213.627 122.665 215.84 122.665C228.124 122.653 240.289 125.063 251.642 129.756C262.993 134.447 273.309 141.331 282 150.012Z" fill="white"/>
<defs>
<linearGradient id="paint0_linear_13_23" x1="-60.8" y1="-51.2" x2="595.2" y2="601.6" gradientUnits="userSpaceOnUse">
<stop stop-color="#8226CE"/>
<stop offset="1" stop-color="#FA2F5B"/>
</linearGradient>
</defs>
</svg>
