<svg width="80" height="80" viewBox="0 0 80 80" fill="none" xmlns="http://www.w3.org/2000/svg">
<rect width="80" height="80" rx="40" fill="url(#paint0_linear_12_18)"/>
<g clip-path="url(#clip0_12_18)">
<path d="M65 48.3331V58.7498C65 60.4073 64.3415 61.9971 63.1694 63.1692C61.9973 64.3412 60.4075 64.9998 58.75 64.9998H48.3333C45.4106 64.9969 42.54 64.2252 40.0098 62.7625C37.4794 61.3 35.378 59.1975 33.9167 56.6665C35.4872 56.6552 37.0525 56.4821 38.5875 56.1498C39.7565 57.6115 41.2396 58.7915 42.9267 59.6023C44.6137 60.4129 46.4617 60.8335 48.3333 60.8331H58.75C59.3025 60.8331 59.8325 60.6135 60.2231 60.2229C60.6137 59.8323 60.8333 59.3023 60.8333 58.7498V48.3331C60.8329 46.4606 60.4108 44.6123 59.5987 42.9252C58.7865 41.2381 57.605 39.7554 56.1417 38.5873C56.4767 37.0525 56.6527 35.4873 56.6667 33.9164C59.1977 35.3778 61.3002 37.4792 62.7629 40.0094C64.2254 42.5398 64.9971 45.4104 65 48.3331ZM52.4521 35.106C52.6469 32.4219 52.2617 29.7274 51.3225 27.2054C50.3835 24.6834 48.9125 22.3931 47.0096 20.4902C45.1067 18.5873 42.8162 17.1163 40.2944 16.1772C37.7725 15.2381 35.0778 14.8528 32.3937 15.0477C27.6373 15.5909 23.2436 17.8543 20.04 21.4117C16.8363 24.9692 15.0438 29.5751 15 34.3623V44.8623C15 50.1373 18.1396 52.4998 21.25 52.4998H33.125C37.9142 52.4585 42.5229 50.6673 46.0829 47.4633C49.6429 44.2596 51.9081 39.8644 52.4521 35.106ZM44.0625 23.4394C45.5415 24.9216 46.685 26.7044 47.4152 28.6668C48.1456 30.6293 48.4458 32.7258 48.2958 34.8144C47.8512 38.5304 46.0635 41.9556 43.2694 44.4454C40.4754 46.9352 36.8675 48.3179 33.125 48.3331H21.25C19.3167 48.3331 19.1667 45.6769 19.1667 44.8623V34.3623C19.184 30.6214 20.568 27.0158 23.0582 24.2241C25.5483 21.4324 28.9729 19.647 32.6875 19.2039C33.0333 19.1789 33.3792 19.1664 33.725 19.1664C35.6443 19.1646 37.5452 19.5411 39.319 20.2743C41.0927 21.0074 42.7046 22.083 44.0625 23.4394Z" fill="white"/>
</g>
<defs>
<linearGradient id="paint0_linear_12_18" x1="-9.5" y1="-8" x2="93" y2="94" gradientUnits="userSpaceOnUse">
<stop stop-color="#8226CE"/>
<stop offset="1" stop-color="#FA2F5B"/>
</linearGradient>
<clipPath id="clip0_12_18">
<rect width="50" height="50" fill="white" transform="translate(15 15)"/>
</clipPath>
</defs>
</svg>
